<svg xmlns="http://www.w3.org/2000/svg" width="1919" height="1259" viewBox="0 0 1919 1259">
  <defs>
    <style>
      .cls-1 {
        fill-rule: evenodd;
      }
    </style>
  </defs>
  <path id="Blacky" class="cls-1" d="M0,0H1919V792l-131,2q-19.005,5-38,10c25.01-42.686,5.65-86.107-8-124-3.32-9.223-2.92-19.761-9-26l-90,1c-10.34,4.465-15.7,16.262-29,21,0.17-19.088,3.03-48.108-6-59-1.8-2.175-57.68-11.552-64-13-50.3-11.531-123.32-5-182-5l-102,1c-16.28,3.229-30.03,9.984-52,10l-159,1-18,18c0.12,11.377,3.37,17.307,5,26q0.495,44.5,1,89c3.83,18.046,19.34,32.717,12,61l-276-8c-20.038,3.049-45.656-.514-69,3-33.637,5.063-75.879,2.681-114,3-40.261.337-85.8,2-129,2-151.5,0-322.181-12.807-461,6V0ZM1665,693c16.25-.481,33.86-0.9,44,5,29.52,17.184,34.48,80.661,2,99-30.06-11.6-80.82-.435-113-4v-4c3.65-8.43.11-18.581,4-26,28.24-5.16,22.06-24.877,34-46C1641.15,707.888,1656.05,698.792,1665,693Z"/>
</svg>
